<svg xmlns="http://www.w3.org/2000/svg" width="24" height="24" viewBox="0 0 24 24" fill="none" stroke="currentColor" stroke-width="2" stroke-linecap="round" stroke-linejoin="round" class="lucide lucide-football"><circle cx="12" cy="12" r="10"/><path d="m12 12-2.45-2.45"/><path d="m12 12 2.45 2.45"/><path d="m12 12 2.45-2.45"/><path d="m12 12-2.45 2.45"/><path d="M4.5 10a1 1 0 1 0 2 0 1 1 0 1 0-2 0"/><path d="M17.5 14a1 1 0 1 0 2 0 1 1 0 1 0-2 0"/><path d="M4.5 14a1 1 0 1 0 2 0 1 1 0 1 0-2 0"/><path d="M17.5 10a1 1 0 1 0 2 0 1 1 0 1 0-2 0"/><path d="M7.5 7.5a1 1 0 1 0 2 0 1 1 0 1 0-2 0"/><path d="M14.5 7.5a1 1 0 1 0 2 0 1 1 0 1 0-2 0"/><path d="M7.5 16.5a1 1 0 1 0 2 0 1 1 0 1 0-2 0"/><path d="M14.5 16.5a1 1 0 1 0 2 0 1 1 0 1 0-2 0"/></svg>